# xmcd
#
# Track frame offsets:
#	150
#	18925
#	33542
#	45850
#	56950
#	76000
#	93475
#	108250
#	126550
#	143575
#	159700
#
# Disc length: 2336 seconds
#
# Revision: 1
# Processed by: cddbd v1.4PL0 Copyright (c) Steve Scherf et al.
# Submitted via: audiograbber 1.81.02
#
DISCID=88091e0b
DTITLE=Diverse - Kaisermühlen Blues
DYEAR=2000
DGENRE=Soundtrack
TTITLE0=Marianne Mendt und Adi Hirschall - Kaisermühlen Blues
TTITLE1=Götz Kauffmann und Peter Fröhlich - Bezirksräte Blues
TTITLE2=Brigitte Neumeister - Hausmeister Blues
TTITLE3=Kaisermühlen Combo - Pizza Blues (Instrumental)
TTITLE4=Adi Hirschal - Kaffeehaus Blues
TTITLE5=Roland Neuwirth - Jeder Ratz Liebt Sein' Kanäu
TTITLE6=Christoph Fälbl und Stephan Paryla - Bullen Blues
TTITLE7=Kaisermühlen Combo - Kaiserwasser Blues (Instrumental)
TTITLE8=Roland Neuwirth - Aber Du Bist Mei Kittlfaltn
TTITLE9=Gerald Pichowetz - 5er Blues
TTITLE10=Kaisermühlen Combo - Kaisermühlen Blues (Instrumental)
EXTD=
EXTT0=
EXTT1=
EXTT2=
EXTT3=
EXTT4=
EXTT5=
EXTT6=
EXTT7=
EXTT8=
EXTT9=
EXTT10=
PLAYORDER=
